<svg width="29" height="29" viewBox="0 0 29 29" fill="none" xmlns="http://www.w3.org/2000/svg">
<path d="M28.203 24.3592L21.55 17.7057C20.5587 19.2474 19.2468 20.5586 17.7051 21.55L24.3586 28.2035C25.4208 29.2655 27.143 29.2655 28.2029 28.2035C29.2652 27.1433 29.2652 25.4211 28.203 24.3592Z" fill="white"/>
<path d="M21.7499 10.875C21.7499 4.86943 16.8807 0 10.875 0C4.86943 0 0 4.86943 0 10.875C0 16.8805 4.86943 21.7497 10.875 21.7497C16.8807 21.7497 21.7499 16.8805 21.7499 10.875ZM10.875 19.0309C6.37737 19.0309 2.71882 15.3727 2.71882 10.875C2.71882 6.37743 6.37737 2.71888 10.875 2.71888C15.3725 2.71888 19.0313 6.37743 19.0313 10.875C19.0313 15.3727 15.3725 19.0309 10.875 19.0309Z" fill="white"/>
<path d="M4.53119 10.875H6.34346C6.34346 8.37654 8.37639 6.34379 10.8748 6.34379V4.53134C7.37737 4.53134 4.53119 7.37753 4.53119 10.875Z" fill="white"/>
</svg>
